<?xml version="1.0" encoding="utf-8"?>
<!-- Generator: Adobe Illustrator 25.3.0, SVG Export Plug-In . SVG Version: 6.00 Build 0)  -->
<svg version="1.1" id="Layer_1" xmlns="http://www.w3.org/2000/svg" xmlns:xlink="http://www.w3.org/1999/xlink" x="0px" y="0px"
	 viewBox="0 0 1200 1200" style="enable-background:new 0 0 1200 1200;" xml:space="preserve">
<style type="text/css">
	.st0{fill:#FEFEFE;}
	.st1{fill:#FED15C;}
	.st2{fill:#FED25D;}
	.st3{fill:#FEDF8F;}
	.st4{fill:#847DA9;}
	.st5{fill:#60588E;}
	.st6{fill:#FDFDFE;}
	.st7{fill:#8781AC;}
	.st8{fill:#FDFDFD;}
	.st9{fill:#8982AD;}
	.st10{fill:#847DAA;}
	.st11{fill:#FED25F;}
	.st12{fill:#FFD700;}
	.st13{fill:#FED15B;}
	.st14{fill:#2B254E;}
	.st15{fill:#FE6D5B;}
	.st16{fill:#60588D;}
	.st17{fill:#FDD15C;}
	.st18{fill:#FEEEC3;}
	.st19{fill:#FEDA7C;}
	.st20{fill:#FEEAB4;}
	.st21{fill:#837CA9;}
	.st22{fill:#FED25C;}
	.st23{fill:#FEFCFA;}
	.st24{fill:#312C54;}
	.st25{fill:#2D2750;}
</style>
<path class="st0" d="M575.8,152.3c186.1,0,372.2,0,558.3-0.1c4,0,5.2,0.5,5.2,5c-0.1,295-0.1,590.1,0,885.1c0,4.1-0.9,4.8-4.9,4.8
	c-356.4-0.1-712.7-0.1-1069.1,0c-4.5,0-5-1.2-5-5.2c0.1-188.7,0.1-377.4,0.1-566.1c0.4-0.4,0.9-0.4,1.5-0.2
	c9.9,6.4,19.9,12.7,29.8,19.2c2.9,1.9,5.9,2.8,9.4,2.7c7.7-0.1,15.3-0.1,23,0c1.9,0,4.6-0.6,5.2,1.8c0.5,2.2-2,3.2-3.7,4.2
	c-9.1,5.5-18.3,10.7-27.2,15.9c10.4-2.3,21.2-4.3,31.9-6.4c1.5-0.3,3.2-0.5,4.1,0.9c1.2,1.8-0.2,3.1-1.2,4.4
	c-6.8,8.6-13.7,17.1-20.9,26.2c2.2,0.1,3.8-0.7,5.4-1.1c34.3-9.6,68.4-19.7,103-28.3c2.4-0.6,5-2.4,7.4,0.3
	c1.3,6.2,0.3,12.5,0.6,18.8c0.1,1.9-0.5,4.1,1.6,5.4c2.3,0.8,4.6,0.6,6.9,0.6c20.3,0,40.6,0,60.8,0c2.2,0,4.3-0.1,6.5,0.3
	c2.3,0.4,3.7,1.7,3.4,4.1c-1.7,14.2-3.5,28.4-6.2,42.4c-0.1,0.6-0.6,1.2-1,1.7c-2.9,2.3-6.3,1.3-9.6,1.5c-4.5,0.4-9.3-1-13.6,1.5
	c-2.8,6.6-2.7,13.7-2.8,20.5c-0.2,11.5,0,22.9-3.2,34.1c-1,3.6,0.2,5.6,3.9,6.6c12,3.1,24.3,3.9,36.6,2.9c6.2-0.5,6.8-1.6,6.7-7.9
	c-0.1-6.5-0.2-12.9-1-19.4c-1.4-11.2,1.3-21.7,5.4-32c-0.6-2.4-2.7-2.7-4.5-3.3c-3.2-1-6.4-1.6-9.7-2c-3.3-0.5-5.2-1.9-5.1-5.4
	c1.4-13.4,3.7-26.7,5.5-40c0.7-4.9,4-5.4,8-5.4c25.1,0,50.3-0.3,75.4,0.1c16.2,0.3,31.7-2.8,47.1-7.6c9.9-3.1,19.5-6.8,29-10.7
	c1.4-0.6,2.8-1.2,4.2-1.6c1.4-0.4,3-1,4.2,0.4c1.1,1.4,0.4,2.9-0.3,4.2c-2.9,5.6-6,11.1-9.1,16.6c-31.5,56.9-63.2,113.7-94.7,170.6
	c-3.1,5.6-3,5.6,3.3,6.7c17.9,2.9,12.4,4.9,25.8-8.2c1.6-1.5,3-3.1,4.6-4.5c1.1-1,2.3-2.4,3.9-1.8c1.9,0.7,1.6,2.7,1.7,4.3
	c0.2,3.5,0,7,0.1,10.5c0.1,6,5,8.7,10.2,5.5c2.1-1.3,3.9-3.1,6-4.5c2.7-1.9,4.6-1.3,5.9,1.7c0.5,1.2,1,2.5,1.3,3.8
	c0.8,3.1,2.9,4.7,5.9,5.3c5.5,1.2,11.1,2.2,16.6,3.6c1.9,0.5,4,0.6,5.2,2.6c0.7,2.1-0.4,3.9-1,5.7c-5.6,14.7-10.9,29.6-16.9,44.1
	c-8,19.1-10.9,38.5-5.7,58.7c-0.2,2.3-1.5,4-2.6,5.8c-13,21.7-25.7,43.5-38.8,65.3c9.1-2.8,16.8-6.8,20.8-16.2
	c1.9-4.6,5.1-8.5,7.8-12.7c0.6-0.9,1.4-2.3,2.7-1.8c1.6,0.6,1.1,2.2,0.9,3.5c-0.1,0.8-0.4,1.6-0.7,2.4
	c-7.6,19.4-16.8,38.3-19.3,57.8c13.7-11.8,20.8-29.6,29.4-46.5c1.1-2.1,2-6,4.5-5.1c3.1,1.2,0.9,4.6,0.3,7
	c-2.7,11.2-5.9,22.2-8.8,33.8c8.3-10.4,16-20.7,24.1-30.8c0.6-0.8,1.2-1.6,1.9-2.3c1-1,2.1-2.5,3.8-1.8c1.4,0.5,1.3,2.2,1.6,3.4
	c1.2,6.4,1.8,12.8,2.4,19.3c0.5,5.2,2.5,9.6,6.3,13.9c1.4-7.6,1.8-14.9,2.6-22.2c2.2-19.5,4.2-39,6.2-58.5c0.2-1.5,0.6-2.9,1.6-4.1
	c14.3-12.6,24-28.3,30.2-46.3c3.5-10.4,7.6-20.6,11.3-31c8.6-23.6,17.4-47.1,25.9-70.8c3.5-9.3,7-18.6,10.3-27.9
	c0.8-2.2,1.5-4.4,2.7-6.4c1.1-1.6,2.2-2.1,3.1,0.1c0.8,2.8,0.6,5.6,0.6,8.4c0,85.8,0,171.7,0,257.5c0,5.2-0.3,10.3-0.2,15.5
	c0.2,24.7,0,49.5,0.1,74.2c0,1.8,0,3.7,0,5.5c0.1,4,1.3,7.4,5.4,8.6c4.2,1.2,6.9-1.1,8.7-4.8c1.3-2.3,1-4.8,1-7.3
	c0-29.3,0.1-58.5-0.1-87.8c-0.1-9,3.7-16.8,6.4-24.9c0.4-1.2,1.1-2.8,2.7-2.4c1.5,0.4,1.6,2.1,1.6,3.3c0.3,7.1,0.1,14.3,0.2,21.4
	c0.2,11.3,2.6,22.4,3.9,33.6c3-15,6.8-29.8,7.4-45.1c0.5-11.4,1.2-22.9,2.5-34.3c0.2-2,0.1-5.2,2.6-5.3c3.2-0.1,2.5,3.4,2.9,5.5
	c3.3,20.7,6.4,41.4,9.5,62.1c0.7,4.6,2.7,8.5,4.4,12.6c-0.1-14.8-0.1-29.7,0-44.6c0-2.4-0.8-5.9,2-6.6c3.1-0.8,3.5,2.9,4.5,5
	c1.9,4,3.6,8.2,5.4,12.4c3.2,7.6,3.5,8,10.8,13.8c0.5-2.2-0.3-3.9-0.7-5.7c-6.3-27.4-12.7-54.8-18.7-82.2c-0.5-2.3-1.2-4.5-0.8-6.9
	c0.2-1.2,0.8-2.2,1.6-3.1c14.1-15.8,18.4-35.1,20.1-55.5c1.6-19.8,4.2-39.5,6.2-59.3c0.2-1.8,0.6-3.6,1.7-5.2
	c5.9-2.9,12.5-3.4,18.8-4.4c5.8-0.9,10.6-2.3,12.4-8.8c0.9-3.3,3.8-4.2,6-1.3c6.5,8.7,15,8.1,24.2,6.3c3.7-0.7,4.5-2,3.2-5.3
	c-2.9-7.3-5.2-14.8-7.8-22.1c-10.2-28.7-20.2-57.5-30.3-86.1c-6.1-17.2-11.9-34.6-18.2-51.8c-0.4-1.1-0.9-2.2-1.1-3.3
	c-0.5-2.3-2.6-4.9-0.4-7c1.9-1.9,4.5-0.3,6.6,0.3c30.6,8.5,61.3,17,91.8,25.6c11,3.1,22.1,4.6,33.5,3.7c4.6-0.3,9.3-0.2,14,0
	c3.3,0.1,5.2,1.8,4.8,5c-1.5,11.5-2.1,23.2-4.8,34.5c-1.8,2.2-4.4,2-6.8,2.1c-3.8,0.1-7.6-0.3-11.4,0.6c-1.9,0.5-4,0.7-4.9,2.9
	c-1.1,6.7-1.8,13.5-1.8,20.3c0,10.8,0.1,21.6-2.2,32.3c-1.1,5.2-0.1,6.4,5.1,7.7c11.6,2.8,23.4,2.7,35.2,2c6-0.4,7.2-2.2,6.4-8.1
	c-0.2-1.3-0.3-2.7-0.6-3.9c-2.2-10.6-1.3-21.1,1.4-31.6c1.3-5.1,2.2-10.4,3.1-15.7c-0.9-3-3.6-3-5.9-3.7c-4.9-1.6-10.1-1.2-15-2.9
	c-1.3-1.4-0.9-3.1-0.7-4.7c1.6-10,2.5-20.1,3.9-30.2c0.8-5.7,2.6-7.8,8.4-7.6c12,0.3,23.9-1.4,35.9-1.1c7.2,0.2,14.3-0.9,21.4-1
	c3.9-0.1,6.4,1.6,7.1,5.5c3.1,16.3,6.6,32.6,9.3,49c0.1,0.7,0.1,1.3-0.1,2c-1.2,2.7-3.9,2.6-6.2,3.3c-4.9,1.6-10.3,2-14.4,5.7
	c-1.1,8.8-1.4,17.4,2.4,25.9c4.2,9.2,8.4,18.5,7,29.1c-0.4,3.4,1.8,4.9,4.9,4.8c12.8-0.6,25.5-2.2,37.5-7.2c3.8-1.6,5.1-4.2,3.4-8
	c-4.8-10.6-5-21.9-4.8-33.2c0.1-6.8-1.1-13.5-4.7-19.5c-5.3-1.1-10.5-0.7-15.8-0.2c-2.1,0.2-4.3,0.8-6.2-0.6c-1.5-1.7-1.8-3.9-2.3-6
	c-3-14.3-5.6-28.7-8.4-43c-1.3-6.6-0.7-7.3,6.3-7.8c17.4-1.2,34.7-1.9,52.1-2c4.7,0,9.3-0.4,13.7-1.8c1.9-1.5,1.3-3.6,1.3-5.5
	c0.3-8.4-0.6-16.8,0.5-25.2c1.3-2.4,3.6-2.1,5.7-2.1c12.5-0.1,25,0,37.5-0.1c4.2,0,7.8,1.8,11.4,3.4c18.2,8.5,36.4,17.2,54.7,25.6
	c1.4,0.6,2.6,1.4,4.4,2.6c-6.1-4.4-10.5-9.7-15.5-14.2c-6.9-6.2-14-12.3-20.4-19c-1-1-2.4-2.3-1.7-3.9c0.8-1.6,2.6-1.3,4-0.9
	c16.6,4.7,33.6,8.1,49.9,14c1.1,0.3,2.1,0.8,3.3,1c0.7,0.1,0.6-0.8,0.3-0.5c-1,0.9-2-0.3-3-0.5c-16-6.2-31.1-14.3-46.5-21.8
	c-1.3-0.7-3.2-1.3-3-3c0.3-2.1,2.5-1.9,4-1.9c14.5-0.1,29-0.8,43.4,0.2c8.7,0.6,17,4.3,25.6,6.5c2.1,0.5,4.1,1.3,7,1.7
	c-10.5-7.3-20.7-13.7-30.6-20.6c-1.4-1-3.1-1.1-4.7-1.4c-10.4-2.1-20.9-3.8-31.3-6.5c-2.1-3.3,1-4.4,2.7-5.6
	c7.4-5,14.4-10.4,22-15.1c-0.7-0.7-1.2,0.3-1.8,0.2c-20.8,4.6-41.5,9.2-62.4,13.2c-17.6,0.1-35.2,0.1-52.8,0c-1.7,0-3.3,0.1-4.9,0.5
	c-12.2,1.1-24.5,1.6-36.8,2.3c-25,1.3-50.1,2.4-75.1,3c-24.6,0.7-49.2,0.3-73.8,0.1c-11.6-0.1-23.2-1-34.8-2.5
	c-24.6-3.2-47-13-68.6-24.5c-3.5-1.9-7.2-3.5-10-6.5c-1.2-1.5-1.4-3.4-0.9-5.1c1.3-5.1,0.3-9.7-2.5-14c-0.3-2.8,1.7-4.2,3.6-5.6
	c3.3-2.5,6.8-4.8,10.7-6.4c8-3.4,14.7-8.4,19.9-15.3c10.7-5.3,21.7-9.9,32.7-14.7c17.2-7.5,31.4-18.3,41.6-34.3
	c2.4-10.2-3.2-20.1-13.7-24.1c-6.5-2.4-13.2-4.5-19.8-6.9c-18.3-6.5-33.4-17.7-47.2-30.9c-5.3-5.1-10.3-10.5-15.6-15.5
	c-12.2-11.6-19.8-25.7-23.7-42c-2-8.3-2.3-17.2-8.7-23.9c0.9-7,4.5-13.2,6.6-19.8c1.7-5.4,3.9-10.6,5.6-15.7
	c-4.2,4.6-8.4,9.7-12.8,14.5c-0.9,1-1.9,2.8-3.6,1.8c-1.5-0.9-0.8-2.7-0.5-4.2c2.4-9.5,5.1-18.9,7.5-29.2c-2.9,4.4-5.6,8-8.4,11.6
	c-1.1,1.4-2.2,3.5-4.2,3c-1.8-0.4-1.9-2.6-2.2-4.2c-1.4-7-3-13.9-3.9-19.6c-2.1,8.5-2.2,18.7-6.1,28.1c-0.7,0.4-1.4,0.4-2.2,0.1
	c-2.9-3.1-3.5-7.1-4.4-10.9c-1.5-6.9-4.8-12.1-11.4-15.2c-4.2-1.9-8.1-4.6-12-7.1c-3.4-2.2-7-3.8-11-4.5
	C578.3,154.6,576,155,575.8,152.3z"/>
<path class="st0" d="M61.7,476.1c-0.4-0.1-0.9-0.1-1.3-0.2c0-106.5,0-212.9-0.1-319.4c0-3.8,1-4.3,4.4-4.3
	c169.7,0.1,339.4,0.1,509.1,0.1c9.3,5.2,17.1,12.5,26.1,18.1c5.2,3.3,6.7,7.9,7,13.4c0.3,4.5,0,8.9,0.5,13.4
	c0.4,3.6-1.3,4.5-4.5,2.5c-5.4-3.2-10.4-7.2-15.6-10.7c-1.8-1.2-3.4-2.6-5.7-4c2.2,4.3,4.1,8.1,6,11.9c3.4,6.7,4.1,13.8,2.7,21.2
	c-0.4,0.5-0.8,1.1-1.4,1.3c-7.1,1.7-10.8,6.7-12.9,13.3c-8.8,17.7-19.9,33.9-33.6,48.2c-1.8,1.9-3.8,3.6-6,5.2
	c-13.2,12.6-28.6,21.5-45.4,28.3c-12.8,5.2-25.8,9.8-37.9,16.5c-7.6,4.2-13.9,9.6-16.7,18.3c2.6,13.5,10,24.2,20.3,32.8
	c9.4,7.8,20.2,13.5,31.7,17.4c1.6,0.5,3.2,1,4.6,1.8c1.9,1,2.8,2.7,3.6,4.6c5.4,11.1,13,20,24.5,25c2.3,1,4.5,2.1,6.7,3.4
	c1.5,0.9,3.5,1.5,3,4c-4.6,1.9-5.5,7.3-9.3,9.9c-13.6,3.3-27.5,4.6-41.4,6.3c-15.7,1.9-31.5,1.7-47.3,2.3
	c-28.2,1.1-56.5,1.9-84.7,3.5c-16.1,0.9-32.2,1.5-48.3,2.4c-15.1,0.8-30.2,1.4-45.3,2.6c-8.1,0.6-16.3,0.4-24.3,1.7
	c-2,0.7-1.8,2.4-1.8,4.1c0,1.8,0.1,3.6-1,5.1c-2.5,1.8-5.2,0.8-7.7,0.3c-31.2-6.7-62.5-13.3-93.7-20c-5.3-1.2-10.7-2-16.3-3.6
	c15.8,9.7,31.4,19.2,46.9,28.8c1,0.6,2,1.2,2.8,2.1c1.4,1.6,0.9,2.7-1,3.3c-1.6,0.5-3.3,0.2-4.9,0c-21.6-2.7-43.2-5.8-64.9-7.3
	c-6.6-0.5-13.2-1.4-19.9-1.2C66.1,478.3,63.7,477.8,61.7,476.1z"/>
<g>
	<path class="st1" d="M840.5,252.4c-6,1.4-10.4,2.8-15,3.5c-3.2,0.5-4.5,2.1-5,5.1c-1,5.5-2.2,10.9-3.6,17.5
		c-2.1-6.7-2.6-12.5-3.2-18.1c-0.5-4.5-2.2-6.7-6.7-7.5c-5-0.9-9.8-2.5-14.6-4.7c5,0,10.1-0.3,15.1,0.1c4.2,0.4,5.9-1.3,6.9-5.1
		c1.2-4.7,2.9-9.4,4.6-14.5c2.1,5.7,1.2,11.1,2.2,16.3c0.4,2.5,1.4,3.2,3.6,3.7C829.5,249.7,834.5,249.9,840.5,252.4z"/>
	<path class="st2" d="M862.6,451.9c-0.7-4.6-0.4-9.7-2.5-13.6c-2.3-4.2-8.4-2.8-12.5-4.7c-1-0.5-2.4-0.1-3.1-1.5
		c4.1,0,8.1-0.2,12.1,0.1c2.8,0.2,4.3-0.7,5-3.5c0.9-3.3,2.2-6.6,3.4-10.2c2.1,3,1.5,6.1,1.5,9c0,3.4,1.4,5.2,4.8,5.6
		c3.1,0.4,6.1,1.1,9.4,1.8c-0.4,0.6-0.4,1-0.6,1c-13,2.6-13,2.6-15.7,16.1C863.7,452.5,863.2,452.5,862.6,451.9z"/>
	<path class="st3" d="M862.6,451.9c0.6,0,1.1,0,1.7,0c0.1,1,0.1,2.3-1,2.2C861.9,454,862.7,452.7,862.6,451.9z"/>
</g>
<g>
	<path class="st4" d="M928.4,631.6c3.4,5.7,4.2,12.1,4.9,18.5c0.3,2.8,0.4,5.7,0.1,8.5c-1.3,10.1,2,19.3,5.4,28.5
		c1.1,3,0.8,5.1-2.3,6.5c-13.7,6.2-28.2,8.5-43.1,8.3c-2.8,0-4.5-1-4-4.1c1.8-11.6-2.9-21.8-7.3-32c-3.7-8.5-3.6-17.2-1.6-26.1
		C897.2,641.6,913.1,638.4,928.4,631.6z"/>
	<path class="st5" d="M928.4,631.6c-0.5,2.9-3.2,3.2-5.2,3.9c-12.6,4.3-25.5,6.7-38.9,6.1c-1.6-0.1-3.5,0.4-3.8-2
		c6.2-4.6,13.8-5.1,20.9-7.1c0.3,1.7,0.2,4.2,2.7,3.8c3-0.4,1.4-3,1.5-4.8c5.6-0.4,11.2-0.9,16.8-1.1
		C924.3,630.5,926.6,630,928.4,631.6z"/>
	<path class="st6" d="M914.7,655.6c2.1-0.6,2.7,0.8,3,2.6c0.5,2.8,1.1,5.5,1.5,8.3c0.4,2.8,0.1,6,4.7,4.5c1.8-0.6,1.9,1.5,2.2,2.7
		c0.3,1.3,0.6,2.7-1.4,3c-2.2,0.3-3.5,1.2-3.4,3.8c0,1.9-2.1,1.8-3.5,2c-1.5,0.2-3.1,0.5-3.4-1.8c-0.3-2.3-1.6-2-3.2-1.6
		c-4.1,0.8-8.1,1.6-12.2,2.2c-1.4,0.2-3.4,1.1-4.1-0.4c-0.8-1.6-1.7-3.9-0.2-5.7c4.9-6.1,9.8-12.1,14.9-18.1
		C910.7,655.8,912.7,655.8,914.7,655.6z"/>
	<path class="st7" d="M902.2,675.6c3.1-3.9,5.7-7.3,8.4-10.8C914.5,673.8,913.6,675.1,902.2,675.6z"/>
</g>
<g>
	<path class="st4" d="M324.9,595.7c-0.5,1.6-0.7,3.3-1.4,4.7c-5.3,10.4-5,21.4-4,32.6c0.6,6.4,0.7,12.9,1.2,19.4
		c0.2,3.3-2,3.8-4.3,4.3c-11.1,2.1-22.1,1.1-33.2-0.6c-3.8-0.6-7.4-1.6-11.1-2.6c-1.9-0.5-3.3-1.6-2.6-4c5.3-16.1,2.5-33,4.6-49.3
		c0.4-3.2,0.4-6.6,1.7-9.6c14.8,5,30,7,45.6,4.9C322.6,595.2,323.8,595.3,324.9,595.7z"/>
	<path class="st5" d="M324.9,595.7c-6.3,2.6-13,2.3-19.5,1.9c-7.2-0.5-14.4-1.7-21.5-3c-3-0.5-6.3-0.9-8.1-4.2
		c4.3-2.9,9.2-1.7,13.9-1.9c3.4-0.2,6.9,0.1,10.3,0.2c0,1,0,2,0,3c0.1,1.1,0.6,1.9,1.8,1.9c1.5,0.1,2-0.9,2.1-2.2
		c0.2-1.9-0.8-4,0.8-5.7c-0.3,2.8,0.6,3.9,3.7,4.2c4,0.4,8,1.5,12,2.5C322.4,592.9,324.6,593.1,324.9,595.7z"/>
	<path class="st8" d="M307.5,617.8c-0.2,2.8-0.3,5.6-0.5,8.4c-0.3,2.8-1.1,5.8,3.6,5.5c1.6-0.1,1.4,1.5,1.3,2.6
		c-0.1,1.5-0.1,3.2-2.3,3.1c-1.9-0.1-3.5-0.1-3.9,2.5c-0.3,2.1-2.3,1.6-3.7,1.3c-1.4-0.3-3.8,0.1-3.4-2.5c0.3-2.5-1.3-2.2-2.7-2.4
		c-4.3-0.4-8.6-0.8-12.8-1.4c-1.3-0.2-3.3,0.5-3.6-1.7c-0.2-1.8-0.2-3.8,1.5-5c6.4-4.7,12.8-9.5,19.4-13.8
		C303.5,612.3,308,614.7,307.5,617.8z"/>
	<path class="st9" d="M299.5,621.9c0,10.7-0.6,11.2-11.5,8.5C292.1,627.4,295.7,624.7,299.5,621.9z"/>
</g>
<g>
	<path class="st4" d="M839.2,625.6c-1.1,5.5-1.7,11.2-3.3,16.6c-3.4,11.8-3.2,23.5-0.9,35.3c1.5,7.6,0.5,9.1-7.3,9.8
		c-12.8,1.2-25.5,0.5-38.1-2.5c-4.2-1-5.8-2.7-4.7-7.3c2.3-9.7,2.7-19.7,2.5-29.7c-0.1-8.5,0.6-16.9,2.1-25.2
		c1.2-0.9,2.5-0.7,3.8-0.3c14.2,3.5,28.5,5.3,43.1,2.7C837.4,624.9,838.4,625.1,839.2,625.6z"/>
	<path class="st5" d="M839.2,625.6c-8.7,2.6-17.5,2.3-26.5,1.4c-7.9-0.8-15.7-1.9-23.2-4.4c-0.2-2.7,2-2.6,3.6-3
		c5-1.2,10.1-0.9,15.2-0.9c1.7,0,3.7,0.7,5-1.2c0,0.3,0.2,0.7,0.1,0.9c-0.8,2-1.7,4.6,1,5.3c2.6,0.7,2.3-2.4,3-4
		c6.5-0.5,12.7,1.1,18.9,2.9C837.7,623.2,839.3,623.7,839.2,625.6z"/>
	<path class="st0" d="M811.7,671.8c-10.5,0-15.3-4.1-15.5-13.3c-0.1-5.2,1.2-9.8,6.3-12c6.9-2.9,14.1-3.3,20.4,1.4
		c4.6,3.4,5.1,8.7,3.9,14.1C825.3,669,820.8,671.8,811.7,671.8z"/>
	<path class="st10" d="M811.6,666.9c-5.7,0-9-3-8.9-8.3c0.1-5.1,3.2-7.9,8.7-8c5.8-0.1,9,2.8,9,8.1
		C820.5,664.3,817.7,666.9,811.6,666.9z"/>
</g>
<g>
	<path class="st11" d="M432.7,241.5c-10.9-0.3-14,6.2-14.3,15.5c-1.9-3.1-2.2-6.3-2.4-9.3c-0.2-3.5-1.5-5.4-5.1-6
		c-3-0.5-6-1.6-9.4-2.6c0.8-0.4,1.1-0.6,1.3-0.6c9.6,1.7,16-1.2,16-13.2c0.9,1.5,1.1,1.7,1.2,1.9
		C421.1,238.3,421.1,238.3,432.7,241.5z"/>
	<polygon class="st12" points="326.3,358 314.7,394.7 314.3,357.9 289.3,328.1 322.4,346.9 362.8,341.1 	"/>
</g>
<g>
	<path class="st13" d="M589.7,218.3c1.4-13.2-4.3-24.3-9.7-35.9c8.6,6,17.2,12,26.5,18.5c-0.6-8.5-1.1-16.1-1.6-23.6
		c-0.1-2-1.8-2.7-3.1-3.6c-8.2-6-16.3-11.9-24.5-17.9c-1.3-1-2.8-1.8-3.6-3.4c0.7,0,1.3,0,2,0c12.4,2.1,22,10.2,32.6,16
		c2.7,1.5,4.2,3.4,5,6.3c1.7,5.9,3.6,11.7,5.4,17.6c0.6,0.8,1.2,0.9,1.8,0c2-10.7,3.9-21.4,5.9-32.1c0.3,0,0.6,0,0.8,0.1
		c1.8,9.1,3.7,18.3,5.7,28.4c4.9-6.6,9.3-12.4,13.7-18.3c0.4,0.2,0.7,0.4,1.1,0.6c-3,11.8-6,23.5-9.4,36.8
		c6.8-7.8,12.7-14.4,18.5-21.1c0.3,0.2,0.6,0.3,0.9,0.5c-4.8,13.1-9.5,26.2-14.3,39.3c-1.6,1.1-3.2,0.6-4.8,0.2
		c-14.8-3.6-29.6-6.6-44.9-7C592.4,219.6,590.8,219.5,589.7,218.3z"/>
	<path class="st14" d="M228.3,465.1c37.9-2.1,75.7-4.2,113.6-6.2c38.5-2,77.1-3.2,115.6-4.2c20.8-0.6,41.4-3.8,61.8-7.4
		c1.1-0.2,2.3-0.3,3.5-0.4c0.7,0.6,1.1,1.3,1.1,2.2c0,6.1,4,9.2,8.7,11.8c10.2,5.6,21.2,8.7,32.3,11.8c2.3,0.6,5.1,0.5,6.4,3.1
		c-0.3,5.6-2.7,10.6-4.6,15.7c-8.9,24.7-17.1,49.7-26,74.4c-11.4,33-22.9,65.9-34.4,98.9c-8,23.1-16.1,46.1-24.1,69.2
		c-0.6,1.7-1.3,3.4-2.1,5.1c-0.8,1.7-2.1,2.6-4,2.3c-4.6-0.8-9.3-1.1-13.3-3.7c-6.9-1.6-13.8-3.7-20.8-4.8c-4.6-0.7-7.2-2.5-8-7.1
		c-0.3-1.9-1.2-3.8-2-6.4c-2.5,1.9-5,3.3-6.7,5.3c-3.9,4.7-8.3,2.7-12.8,1.8c-2.2-0.4-1.8-2.1-1.8-3.5c0-5.8,0-11.6,0-18.6
		c-5.7,5.6-10.8,10.3-15.4,15.4c-2.6,2.9-5.1,3.5-8.7,2.8c-6-1.3-12.1-2.2-18.9-3.4c36.6-66,73.2-131.8,109.7-197.6
		c-0.3-0.2-0.6-0.5-0.9-0.7c-10,3.7-20.1,7.5-30.1,11.2c-18.6,6.8-37.6,10.4-57.6,9.9c-24.3-0.6-48.6,0-72.9-0.3
		c-4.2,0-5.2,1.5-5.7,5.1c-1.7,13-3.6,26-5.4,39c-0.5,1.3-0.4,2.6-0.1,3.9c0.4,1.7,0.6,3.4-1.1,4.4c-1.2,0.8-2.6,0.7-3.6-0.4
		c-1.4-1.6-1.2-3.3,0.1-5c2.1-14.8,4.1-29.6,6.4-44.3c0.6-3.9-1.9-2.7-3.5-2.7c-23.6-0.1-47.2,0-70.7,0c-1.3,0-2.7-0.1-4-0.1
		c-0.2-0.4-0.6-0.8-0.6-1.3c0.5-20-2.2-40-0.8-60C227.3,475.2,227,470.1,228.3,465.1z"/>
	<path class="st14" d="M666.7,463.9c21,12.3,42.7,22.9,66.6,28.3c19.9,4.5,40.2,4.5,60.5,4.8c57.2,0.8,114.3-2.4,171.5-5.3
		c4.1-1.2,5.4,0.9,5.7,4.5c0.5,6.3-1.4,12.5-1.2,18.8c0.6,18.8-1.5,37.5-0.8,56.2c0,0.8,0,1.7-0.6,2.4c-22.9,0.9-45.7,2-68.6,2.7
		c-4,0.1-4.9,1.1-4.1,5c3.5,16.7,6.6,33.5,9.9,50.2c1.4,1.5,1.8,3.2,0.3,4.9c-0.9,1-2.1,1.2-3.2,0.6c-2-1-2.4-2.6-1.3-4.6
		c-3.3-17.1-6.7-34.1-9.9-51.2c-0.6-3.1-1.3-4.8-5.2-4.6c-19.9,1-39.8,1.6-59.7,2.3c-2.7,0.1-4.6,0.3-5,3.9
		c-1.4,12.1-2.3,24.3-4.8,36.3c0,0.2,0.4,0.4,0.7,0.7c1.3,2.2,0.1,3.7-1.6,4.8c-0.9,0.6-1.9,0.1-2.7-0.6c-1.5-1.4-2-3-0.7-4.8
		c0.4-0.5,0.7-1.1,1-1.7c1.3-10.7,2.4-21.5,3.9-32.2c0.6-4.1,0.5-6.5-4.9-5.8c-27.1,3.6-52.2-5.1-77.6-12.3
		c-22.2-6.3-44.4-12.4-67.5-18.9c2.7,8,5.2,15.2,7.8,22.4c17.2,49.1,34.5,98.3,51.7,147.4c2.3,6.6,2.3,6.6-4.4,7.4
		c-1.8,0.2-3.7,0.3-5.4,0.8c-7.4,2.2-13.2,0.1-17.7-6.1c-1-1.4-2.7-2.4-4-3.7c-0.4,0.4-0.7,0.6-0.8,0.8c-1.9,8.6-7.5,11.7-15.9,12.2
		c-5.7,0.4-11.4,2.1-17.1,3.3c-4-0.1-4.4-3.9-6.3-6.2c-1.5-1.9-1.9-5.5-4.6-5.3c-2.6,0.2-3.4,3.5-4.1,5.8c-2.6,7.7-8,10.5-15.8,11
		c-9.3,0.6-18.5,2.1-27.7,3.2c-6.3,0.8-8.3-0.9-7.5-6.9c1.5-10.9,0.9-21.9,1.4-32.8c0.6-13.9,1.8-27.8,1.4-41.8
		c-0.1-3.7,0-7.3,2.1-10.6c3.6-2.1,2.7-5.7,2.9-8.9c0.3-4.9,1.8-6.3,6.4-6.2c3.4,0.1,5.2,1.6,5.4,5.1c0.1,2.1-0.4,4.3,1.1,6.7
		c1.5-2.4,0.4-4.7,0.3-6.8c-0.2-4.4,1.2-5.8,5.8-6.2c3.9-0.4,5.4,1.7,5.7,5.2c0.2,2.1-0.2,4.3,1.1,7c0.9-2.9-0.1-5.2,0.1-7.4
		c0.3-4.2,2.5-6.1,6.8-6.2c4.2-0.1,4.8,2.6,5,5.9c0.1,2-0.3,4.2,0.9,6.5c1.3-2.5,0.3-4.6,0.2-6.7c-1.9-26.8-3.4-53.7-5.2-80.5
		c-1.5-22.8-2.7-45.7-4.7-68.5c-0.1-0.8-0.1-1.7-0.1-2.5c-0.3-10.2-0.3-10.3,9.7-12.2c6.5-1.3,12.3-3.9,17.9-7.2
		C661.9,465.2,663.9,463.3,666.7,463.9z"/>
	<path class="st15" d="M600.8,649.6c-1.6,11.1-0.9,22.2-1.6,33.3c-1,17.7-1.4,35.5-2.2,53.3c-0.1,3,0.2,4.6,3.9,4.1
		c11.8-1.7,23.7-3.2,35.6-4.4c3.3-0.3,4.9-1.8,6.3-4.6c2.3-4.8,4.9-9.3,7.6-14.4c4.9,5,6.3,11.8,11.2,16c-3,27-5.6,54-9,80.9
		c-2,15.8-8.9,29.7-20,41.3c-1.5,2.2-3.8,3.4-6.3,3.7c-11.9,1.2-23.9,2.1-35.4-2.7c-1.3-0.8-2-2.2-3-3.3c0.5,5.7,0,11.3,0.3,17
		c-0.7,2.5,1.7,6.2-2.8,7.1c-1.4-1.9-1.2-4.1-1.2-6.2c-0.1-3.8-0.2-7.6,0-11.5c0.4-7.9-0.8-15.4-3.7-22.9
		c-3.2-8.1-4.3-16.7-4.3-25.4c0-43.7,0-87.4,0-131.1c0-1.2,0.1-2.3,0-3.5c-0.2-2.2,0.7-5-1.6-6.4c-2.7-1.6-3.9,1.7-6,2.4
		c-3.9,10.3-7.8,20.6-11.8,30.9c-0.6,1.7-1.4,3.3-2.1,5c-2.6,0.8-4.4-1-6.4-2.1c-8.2-4.7-16.3-9.5-24.4-14.4c-1.5,1.9-0.6,3.5-0.4,5
		c2.6,15.7,5.1,31.5,7.9,47.2c0.7,4.3-0.4,7.3-3.3,10.3c-9.6,9.4-19.1,18.9-29.1,29.1c8.4-1.2,15.8-3.4,23.5-4.7
		c2.1-0.4,4.2-1.3,6.2,0.5c-5.2,15.2-10.4,30.4-16.8,45.1c-5.1,11.7-13.3,21.3-22,30.5c-0.8,0.9-1.8,1.4-3,1.6
		c-2.8,3-6.4,2.3-9.8,2.2c-10.1-0.3-20.1-1.7-29.6-5.3c-3.6-1.4-7-3-8.6-7c-5.4-17.3-4-34.4,2.2-51.2c7.1-19.3,14.6-38.5,21.9-57.7
		c3.9,0.7,7.9,1.1,11.7,2.3c3.4,1.1,4.3-0.3,5.3-3.1c7-20.3,14-40.5,21.1-60.7c12.7-36.4,25.3-72.8,38-109.1
		c0.2-0.4,0.5-0.8,0.8-1.2c1.5-1.3,3.3-1.5,5.2-1.4c17.5,1.8,35.1,2.3,52.6,3.7c1,0.1,2,0.1,2.7,1c1.1,1.6,1.1,3.5,1.1,5.3
		c-0.6,22.6,1.6,45.1,1,67.7C602.3,644.6,602.7,647.4,600.8,649.6z"/>
	<path class="st16" d="M589.7,218.3c18.3-0.1,36.2,3.3,53.8,8.2c4.1,3.2,6.3,7.4,7.1,12.7c3.3,22.5,13.1,41.4,30.2,56.9
		c12.9,11.7,24.9,24.5,40.3,33.2c11.6,6.6,24.3,10.5,36.9,14.9c10.7,3.7,16.5,12.7,15.7,23.9c-0.1,0.8,0,1.7-0.9,2.1
		c-8.2-7.9-18.6-11.1-29.2-13.7c-14.9-3.7-30.1-6.4-45.4-7.8c-18.2-3.6-36.6-6.2-55.1-8c-12.6-1.2-24.8,1.8-36.8,5.1
		c-6.6,1.8-13.2,3.5-19.7,5.2c-5,1.2-10.4,1.3-14.4,5.4c-4.3-3-8.4,0.1-12.6,0.3c-8.3,1.9-16.7,2.5-25.1,3.9
		c-11.1,0.9-22.2,1.4-33.3,1.2c-3-0.1-6,0-8.9-1c-17.6-1-35-3.8-51.9-8.8c-1.9-0.6-3.8-1.2-5.2-2.7c2-6.8,6.4-11.9,12-15.9
		c10.5-7.5,22.6-11.9,34.6-16.4c19.9-7.5,38.5-17.2,54.2-31.7c6.8-4.1,13-9.1,19.7-13.4c9.3-6,9.4-6,13.6,4c0.4,1.1,0.9,2.1,1.5,3.2
		c2.4,4.7,4,9.8,6.5,14.5c0.1,0.1,0.3,0.2,0.7,0.4c2-1.5,2.6-4,3.7-6.1c2.8-5.4,5.6-10.9,8.3-16.5c1.6-3.3,3.9-5,7.6-5.6
		c6.6-1,13.2-1.7,20-2.7c-4.8-2.8-9.7-4.7-14.6-6.7c-6.7-2.7-12.9-6-17.3-12c-3.3-4.2-8.2-7-10.6-11.9
		C577.1,224.7,581.1,219.1,589.7,218.3z"/>
	<path class="st15" d="M585.2,350.1c19.1-5.3,37.9-12.6,58.2-10.8c17.4,1.6,34.8,4.5,52.1,7c1,0.1,2,1.1,3,1.7
		c2.4,1.3,3.2,3.8,4,6.1c3.3,9.1,5.3,18.4,3.9,28.3c-1.4,10-2.3,20.1-5.1,29.9c-0.7,2.4-1.4,4.8-3.5,6.5c-3.3,6-8.3,10.2-14.4,13.3
		c-7.1,3.5-14.6,6.6-19.9,13c-1.5,3.6-5.1,4.1-8.2,4.8c-17.5,4.3-35.3,6.2-53.3,5.6c-18.2-0.8-36.4-1.6-54.2-6.3
		c-6.9-1.8-13.7-4.4-17-11.6c-3-1.6-6-3.5-9.1-4.9c-12.2-5.4-20.7-14.5-26.1-26.6c-0.6-1.3-0.9-2.9-2.4-3.5
		c-4.8-12.8-5.8-26-3.4-39.4c0.3-1.5,1-2.8,2.2-3.8c11.8,1.2,23.7,1.2,35.5,0c2.5-0.2,4.9-0.1,7.4-0.2c2.2,1.2,3,3.5,4.1,5.5
		c2.6,4.7,6.3,7.6,11.7,8.4c2.1,0.3,4.4,0.4,6.4,1c11.6,3.7,19.8-1.4,27.2-9.6c2.5-2.8,3.4-5.5,1.8-9
		C585.2,353.7,584.3,352,585.2,350.1z"/>
	<path class="st16" d="M601.8,454c17.2,0.1,34.3-1.2,51.1-5.1c3.7-0.9,7.3-2,10.6-4c4.6,3.4,4.6,8.2,3.9,13.1
		c-0.3,2-1.1,3.9-0.7,5.9c-9.2,6.1-18.7,11.5-30.1,11.9c-2.6,0.1-3,1.5-2.9,3.6c0.4,8.6,0.3,17.3,1.4,25.8
		c0.8,6.6,0.9,13.2,1.4,19.8c1.5,18.5,2.2,37.1,3.3,55.6c1.2,19.2,2.6,38.4,4,57.5c0.1,2,0.6,3.9,0.8,5.9c0.2,1.5-0.4,2.6-2.2,2.6
		c-1.8,0.1-2.8-0.6-2.8-2.6c0-2.5,0-5,0-7.5c0-2.1,0.1-4.6-2.9-3.7c-2.3,0.6-6.3-0.7-6,4c0.1,2.3,0.2,4.6,0.7,6.9
		c0.4,1.5,0.9,3.5-1.8,3.8c-2.5,0.3-3.2-1.1-3.1-3.3c0.1-1.5,0-3,0-4.5c0-6-1.4-6.9-7.1-5.1c-2.1,0.7-1.8,2.2-1.7,3.6
		c0.2,2.5,0.6,4.9,0.9,7.4c0.2,1.7-0.2,2.9-2.3,3c-2,0-2.7-0.9-2.6-2.7c0-1.7,0-3.3,0-5c0.1-2.9,0.5-5.5-4.1-5.4
		c-4.1,0.1-5.3,1.5-4.9,5.3c0.2,1.6-0.1,3.3,0.1,5c0.3,3.2-1.1,4.3-4,3.8c-0.4-25-0.7-50.1-1.1-75.1c0-1.8-0.2-3.6-0.3-5.5
		c-2-2.5-2.1-5.6-2.1-8.6c0.6-24.1-1.6-48.2-1.1-72.3c0-1.3,0-2.7,0-4c-0.3-5.7-1.2-6.5-6.9-6.7c-5-0.2-10,0.4-14.9-0.4
		c-3.2-1.2-2-3.2-0.8-5.1c4.6-7.2,11.5-11.1,19.3-13.9C595.9,456.9,599.6,457.1,601.8,454z"/>
	<path class="st13" d="M61.7,476.1c11.1,0.9,22.2,1.9,33.3,2.7c19.6,1.4,38.9,4.5,58.4,6.6c2,0.2,4.1,0.4,6.4-0.4
		c-18-11.1-36-22.2-54-33.2c0.1-0.3,0.2-0.7,0.4-1c6,1.3,12.1,2.5,18.1,3.8c33.1,7.1,66.2,14.2,99.3,21.3c1.1,0.2,2.3,0.2,3.5,0.3
		c1.2,4.4,0.3,8.9,0.5,13.3c0.1,1.9-1.4,2.5-3,2.8c-2.1,0.4-4.3,0.3-6.5,0.3c-22.6,0-45.2,0-67.8,0c-3.2,0-6.3-0.1-9.3,1.2
		c-2.2,1-3.6,2.5-3.6,4.9c0,2.4,1.6,3.9,3.8,4.7c2.7,1,5.6,0.9,8.4,0.9c22.4,0,44.9,0,67.3,0c0.7,0,1.3,0,2,0c9.3,0.1,10,1,8.1,10.7
		c-27.8,6.5-55.2,14.5-82.7,22.3c-11.5,3.2-22.9,6.4-35,8.8c8.3-10.4,16.6-20.9,24.9-31.3c-0.1-0.4-0.3-0.7-0.4-1.1
		c-13,2.5-26,5-39,7.6c-0.2-0.3-0.3-0.6-0.5-1c11.4-6.8,22.9-13.5,34.3-20.3c-0.1-0.3-0.1-0.7-0.2-1c-8.8,0-17.7-0.2-26.5,0.1
		c-4.4,0.1-8-1-11.6-3.5c-8.1-5.5-16.5-10.6-24.7-16C64.1,478.7,62.2,478.1,61.7,476.1z"/>
	<path class="st13" d="M590.8,855.4c10.4,3.4,21.1,3.3,31.9,3c3.6-0.1,6.6-2,9.9-3c7.3,32.7,14.7,65.3,22.3,99.4
		c-5.5-4.8-11-7.7-13.4-13.9c-2.9-7.2-6.1-14.3-10.4-21.2c0,18.2,0,36.3,0,55.4c-7.5-8.8-7.9-18.8-9.3-28.3
		c-2.8-18.4-5.6-36.7-8.3-55.1c0-0.3-0.4-0.5-1.5-2c-2.8,30.9-2.6,61-12,89.9c-3-10-3.8-20.5-4.8-30.8c-0.9-10.4-0.2-20.9-0.8-31.5
		c-2.8,8.2-7.6,15.8-7.7,24.7c-0.1,30.4,0,60.9-0.1,91.3c0,1.8-0.2,3.6-0.3,5.4c-2.8-1.8-1.9-4.7-1.9-7.2c-0.1-27,0-54.1-0.1-81.1
		c0-1.8,0.5-3.6-0.7-5.7c-3.1,3.1-5.7,6.5-8.6,9.6c-1.4,1.5-2.5,4.3-5.5,2.4c0.2-8.7,2.2-17.1,4.1-25.5c3.4-15.9,6.4-31.9,10-47.8
		c0.5-2.2,0.4-4.7,2.7-6.1c1.2-2.4,0.1-5.1,0.7-7.6c1.1-3,0.7-6.1,1.4-9.1C588.6,858.5,588.9,856.5,590.8,855.4z"/>
	<path class="st13" d="M1099.1,546.9c-18.1-4.7-36.1-9.5-54.2-14.2c-0.2,0.3-0.4,0.7-0.6,1c13.8,12.8,27.7,25.6,41.5,38.5
		c-0.1,0.2-0.2,0.4-0.3,0.6c-5.7-2.6-11.3-5.2-17-7.8c-16.8-7.9-33.7-15.8-50.5-23.8c-1.7-0.8-3.3-1.4-5.2-1.4
		c-14.5,0.1-28.9,0.1-43.4,0.2c-1.3-8.5-0.4-17.2-0.5-25.7c-0.2-9.9,0-9.9,10.1-9.9c23.2,0,46.5,0,69.7,0c4.3,0,8.3-0.5,11.2-4.2
		c0.7-0.7,1.5-1.2,2.5-1.4c27.1,1.8,50.3,12.4,70.5,31.2c-14.3-1.7-27-8.9-41.1-8.9c-13.8,0-27.7,0-41.8,1c16.7,8,33.3,16,50,24
		C1100.3,546.8,1100.2,547.2,1099.1,546.9z"/>
	<path class="st13" d="M438.8,846.5c14.5,10.7,31,11.6,48,10c-1.3,11.4-2.7,22.7-3.9,34.1c-1.8,16.8-3.5,33.7-5.3,50.5
		c-0.1,0.8-0.4,1.6-0.8,2.9c-5.6-5.8-8.5-12.1-8.9-19.9c-0.3-6.4-1.3-12.8-2.2-20.6c-10.8,13.8-20.8,26.6-30.9,39.4
		c-0.3-0.1-0.7-0.3-1-0.4c3.8-14.4,7.5-28.9,11.3-43.3c-0.4-0.2-0.8-0.4-1.2-0.6c-10.2,19.7-18.3,40.7-35.4,55.5
		c2.6-23.4,13.4-44.7,20.7-67.2c-3.8,6.2-7.8,12.3-11.3,18.7c-2.5,4.7-6.1,7.7-10.9,9.6c-3.8,1.5-7.4,3.3-12.3,5.5
		C409.8,895.2,424.3,870.8,438.8,846.5z"/>
	<path class="st14" d="M697.8,418.7c4.8-13.2,6.4-27.1,7.6-41c0.9-10.5-2.7-20.3-6.9-29.7c4.8-2,9.4,0.5,14,1.2
		c15.9,2.4,31.9,4.6,46.8,11c5.2,2.2,11.3,3.6,13.5,10c-10.2,15.4-23.6,26.8-40.7,33.9C720.6,408.9,709.5,414.7,697.8,418.7z"/>
	<path class="st14" d="M586.1,877.2c-5.5,26.4-11,52.7-16.6,79.1c-0.2,0-0.4,0-0.6,0c-0.1-2-0.2-4-0.2-6c0-90.4,0-180.7,0-271.1
		c0-2.2-0.1-4.3-0.2-6.5c0.4-1.9,0.4-4,3-4.6c4.5-1.1,6,0,6,4.8c0,44.4,0.1,88.8-0.1,133.3c-0.1,13.3,1.9,26.1,7.4,38.3
		c0.9,2.1,1.1,4.1,1.1,6.3C586,859.5,586.1,868.3,586.1,877.2z"/>
	<path class="st13" d="M528.7,779.4c-9.9,1-19.4,3.9-29.2,5.7c-0.9,0.2-1.9,0.2-2.9,0.3c0.3-2.1,1.9-3,3-4.1
		c9.4-9.6,18.9-19.1,28.5-28.6c2.2-2.2,2.8-4.3,2.2-7.5c-3.3-18.3-6.2-36.7-9.4-56.2c11.8,6.8,22.8,13.2,33.8,19.5
		c-7.6,21-15.3,42-22.9,63C530.9,774.2,529.7,776.8,528.7,779.4z"/>
	<path class="st14" d="M569,956.2c0.2,0,0.4,0,0.6,0c1.3,2.2,1.7,0.1,2.3-0.5c4.4-5.1,8.8-10.3,14.4-15.2c0,32.7,0,65.4,0,98.1
		c-2.1,5.5-5.9,8.1-10.3,7.2c-4.5-1-7.1-4.5-7.1-9.9C568.8,1009.4,568.9,982.8,569,956.2z"/>
	<path class="st4" d="M227.1,515c0.7-9.3,0.7-9.3-8.3-9.3c-24.1,0-48.2,0-72.3,0c-1.7,0-3.3,0-5-0.3c-3.7-0.7-6.1-3-6.1-6.8
		c0-3.7,2-6.3,5.8-6.9c2.1-0.3,4.3-0.5,6.4-0.5c24.8,0,49.5-0.1,74.3,0.1c4.1,0,5.8-1,5.3-5.2c-0.4-3.3-0.2-6.6-0.3-9.9
		c0.9-3.6-1.3-7.5,1.2-10.9c0,25.5,0,51,0,76.4c-2-1.1-1-2.9-1-4.4C227.1,529.8,227.1,522.4,227.1,515z"/>
	<path class="st4" d="M1061.4,499.8c-1.6,4.8-5.2,5.9-9.8,5.9c-25.6-0.1-51.3,0.1-76.9-0.2c-4.8,0-5.9,1.5-5.7,5.9
		c0.4,9.5,0.2,19,0.3,28.4c0,9.8-0.1,19.5-0.2,29.3c0,1.5,0.9,3.3-1,4.5c0.1-20.6,0.1-41.3,0.2-61.9c0-5.3,0.2-10.6,0.7-15.9
		c0.3-3.2-1.3-4.1-3.9-4.2c1.5-1.1,3.2-0.5,4.8-0.5c18.1,0,36.2-0.1,54.3-0.1c9.2-0.8,18.4-0.8,27.7-0.7c2,0,4-0.1,5.9,0.8
		C1061.5,493,1062.7,495.9,1061.4,499.8z"/>
	<path class="st17" d="M1061.4,499.8c-0.7-6.6-2.3-8-8.7-8.2c-9.4-0.3-18.9,0.7-28.3-0.5c20.9-4.4,41.8-8.8,62.7-13.2
		c1.1-0.4,2.2-0.9,2.1,1c-7.4,5.2-14.8,10.4-22.2,15.6c-1.7,1.2-3.8,2.1-4.6,4.3C1062,499.1,1061.7,499.5,1061.4,499.8z"/>
	<path class="st18" d="M620.6,192.2c-0.1,0.8,0.6,2.2-0.7,2.2c-1.1,0-1.2-1.3-1.1-2.2C619.4,192.2,620,192.2,620.6,192.2z"/>
	<path class="st19" d="M1089.1,478.9c-0.5-0.8-1.3-0.9-2.1-1c1.1-0.9,2.5-1.5,3.5-0.5C1091.1,477.9,1089.9,478.6,1089.1,478.9z"/>
	<path class="st20" d="M1099.1,546.9c0.3-0.3,0.5-0.6,0.8-0.9c0.9,0.3,2.6,0.5,2,1.6C1101.6,548.4,1100,547.8,1099.1,546.9z"/>
	<path class="st14" d="M491.9,359.2c-3,12.4-2.2,24.7,0.4,37.1c0.4,2,2,3.9,0.8,6.1c-17-6-33.2-13.4-45.3-27.5
		c-6.5-7.5-11.2-15.9-12.9-25.8c10.8,2.5,21.3,6,32.4,7.4C475.5,357.5,483.6,359,491.9,359.2z"/>
	<path class="st21" d="M601.8,454c0.7,0.4,1.3,0.9,2.3,1.6c-12.3,4-25.2,7-31.4,20.1c-0.6,0.7-1.3,0.8-2,0.2
		c-8.5-2.6-17-5.3-25.5-7.9c-5.2-1.7-10.1-4.1-14.9-6.8c-5.5-3.1-9-7.3-7.5-14.2c0.8-4.7,3-8.3,8-9.5c12.5,12.9,29.2,12.8,45.4,14.6
		C584.7,452.9,593.2,454,601.8,454z"/>
	<path class="st14" d="M574.9,232.3c4,3.3,7.6,6.9,10.8,11c-1.3,7.8-5.6,14.4-8.2,21.7c-1.3,3.6-2.9,7-4.4,10.5
		c-0.7,1.6-1,3.6-3.3,3.9c-2.4-2.3-2.8-5.6-4.1-8.4c-1.3-2.7-2.5-2.9-4.9-1.3c-6.8,4.6-13.8,9.2-20.7,13.7c-1.4,0.9-2.7,2-4.5,1.8
		C552.3,270.1,564.6,251.9,574.9,232.3z"/>
	<path class="st22" d="M338.6,359c-4.7,1.1-9.3,2.3-14,3.3c-2.8,0.6-4.1,2-4.6,4.9c-0.9,5.5-2.2,10.9-4.5,16.3
		c-0.8-5.8-1.8-11.5-2.5-17.3c-0.5-3.6-1.4-6-5.7-6.8c-5.5-0.9-10.8-2.8-16.1-5.2c5.2,0,10.3-0.3,15.5,0.1c4.3,0.4,6.3-1.3,7.3-5.4
		c1.1-4.6,2.9-9.1,4.5-14.2c1.4,5.1,1.4,9.9,1.8,14.7c0.2,3.2,1.1,5.5,5.2,5.8c4.4,0.3,8.7,1.6,13,2.4
		C338.6,358.2,338.6,358.6,338.6,359z"/>
	<path class="st13" d="M570.7,475.9c0.7-0.1,1.4-0.1,2-0.2c6.8,0,13.7,0.3,20.5,0.1c3.2-0.1,4.1,1.2,4.2,4
		c0.1,5.2,0.2,10.3,0.3,15.5c0.5,24.6,1.1,49.2,1.6,73.8c-7-0.1-14.2,0.3-21.1-0.6c-6.6-0.8-13.1-0.4-19.7-1.5
		c-6.1-1-12.5-0.9-18.7-1.3c5.2-15.4,10.4-30.8,15.7-46.1C560.5,505,565.7,490.4,570.7,475.9z"/>
	<path class="st23" d="M590.8,855.4c-1.9,4.6-1.2,9.9-4,14.2c0-6.5,0-13,0-20.6C588.5,851.7,589.7,853.5,590.8,855.4z"/>
	<path class="st13" d="M569.9,279.4c4.5-10.6,9-21.2,13.6-31.8c0.6-1.5,0.9-3.2,2.2-4.3c8.9,11,23.2,12.8,35.4,20.5
		c-8.8,1.2-16.6,2.5-24.3,3.3c-2.7,0.3-4.1,1.4-5.3,3.7c-3.7,7.4-7.5,14.8-11.3,22.2c-0.7,1.4-1,3.2-3.1,4.2
		C574.7,291.2,571.5,285.6,569.9,279.4z"/>
	<path class="st0" d="M585.2,350.1c4.2,11.3,3.8,10.9-4.8,19.7c-7.3,7.4-15.3,6.4-24.4,5.6c-11.1-1-17.9-5.9-21.3-16.3
		c8.2-1.3,16.4-2.6,24.6-3.9c3.8,4,8,4,12.3,0.9C574.3,349.7,580.4,351.3,585.2,350.1z"/>
	<path class="st24" d="M571.8,356c-4.6,5.5-8.8,5.2-12.3-0.9c3-0.6,6.1-1.2,9.1-1.9C571,352.7,571.9,353.7,571.8,356z"/>
	<path class="st0" d="M653.8,342.9c3,0.3,5.9,0.7,8.9,1c5.2,0.6,8.9,3.4,11.3,7.9c1.6,3.1,2.7,6.5,4.6,9.4c4,6.1,2.2,10.8-2.4,15.8
		c-9.3,10-20,12.7-32.7,7.5c-9.6-3.9-14.5-18-9.5-27c1.1-2,2.4-4,3.6-6C641.3,345.5,646.4,342.2,653.8,342.9z"/>
	<path class="st14" d="M529.8,390.4c0.8,0.1,1.6,0.4,2.4,0.3c13.1-1.6,24,2.6,32.9,12.2c1.6,1.7,3.4,1.6,5.5,0.7
		c4.8-1.9,9.6-3.6,14.4-5.6c2.1-0.9,3.6-0.8,5.3,0.9c2.8,2.8,6.1,5.2,8.8,8.1c2.6,2.8,5.1,3.5,8.7,1.7c5.1-2.5,10.4-4.3,15.5-6.7
		c2.6-1.2,4.7-1.3,6.8,0.8c0.2,0.2,0.6,0.3,0.8,0.5c5.7,6,11.6,6.5,17.9,0.8c1.8-1.7,4-1.8,6.5-1.1c7,1.8,14.1,3.4,21.2,5.8
		c-4.8,0.4-9.6,1.3-14.4,1.1c-6.6-0.3-11.9,1.7-16.8,5.9c-3.1,2.7-6.7,6.7-10.1,6.7c-3.6,0.1-6-5.2-8.6-8.4
		c-2.6-3.1-4.7-3.1-7.9-1.2c-4.7,2.7-9.9,4.8-14.6,7.5c-2.7,1.5-4.4,1-6.4-1c-3.5-3.5-7.3-6.8-10.9-10.3c-1.7-1.6-3.2-2.2-5.1-0.5
		c-0.2,0.2-0.6,0.3-0.9,0.5c-4.2,2.2-8.2,7.1-12.5,6.4c-3.9-0.7-7.4-5.3-10.7-8.5c-5.7-5.6-12.3-9.5-19.8-12.1
		c-2.8-1-5.4-2.4-8.1-3.6C529.8,391,529.8,390.7,529.8,390.4z"/>
	<path class="st14" d="M622.8,388.7c0.4,3.1-0.7,4.2-4,3.7c-5.3-0.8-10.6-1.2-15.9-1.7c-3.2-0.3-4.9-1.3-3.2-5.1
		c4.6-10.7,8.9-21.5,13.4-32.2c0.6-1.4,0.8-3.6,3.1-3.3c2.1,0.2,1.8,2.3,1.9,3.6C619.8,365.3,621.3,377,622.8,388.7z"/>
	<path class="st25" d="M665.1,363.6c0.1,3.7-3.2,7.1-6.9,7.1c-3.6,0-6.6-3-6.7-6.7c-0.1-3.7,2.7-6.8,6.3-7
		C661.7,356.9,665,359.8,665.1,363.6z"/>
	<polygon class="st12" points="795.3,419.1 790.1,435.4 790,419 779,405.8 793.6,414.1 811.4,411.5 	"/>
</g>
<polygon class="st12" points="916.2,658 904.7,694.7 904.2,657.9 879.2,628.1 912.4,646.8 952.8,641.1 "/>
<polygon class="st12" points="916.2,658 904.7,694.7 904.2,657.9 879.2,628.1 912.4,646.8 952.8,641.1 "/>
<polygon class="st12" points="916.2,658 904.7,694.7 904.2,657.9 879.2,628.1 912.4,646.8 952.8,641.1 "/>
<polygon class="st12" points="916.2,658 904.7,694.7 904.2,657.9 879.2,628.1 912.4,646.8 952.8,641.1 "/>
<polygon class="st12" points="916.2,658 904.7,694.7 904.2,657.9 879.2,628.1 912.4,646.8 952.8,641.1 "/>
</svg>
